<svg xmlns="http://www.w3.org/2000/svg" xmlns:xlink="http://www.w3.org/1999/xlink"><symbol id="icon-cat-pro" viewBox="0 0 134 56">
  <g>
    <path d="M123.1,5.8c1.2-1.9,2.7-3.4,4.5-4.6c1-0.7,1.6-0.7,2.2,0.6c0.8,1.9,1.5,3.9,0.9,6c-0.2,0.8-0.1,1.4,0.4,2.1
    c0.6,0.8,1.1,1.6,1.6,2.3c1.3,1.9,1.8,3.9,0.9,6.2c-0.4,1-0.4,2-0.2,3.1c0.2,1,0.2,2,0,3c-0.3,1.6-1.1,2.7-2.7,3.2
    c-1.3,0.3-2.4,0.9-3.2,2c-0.2,0.3-0.5,0.5-0.9,0.5c-1.2,0.2-4.2-2.5-4.2-3.7c0-0.2,0-0.4,0-0.6c0.1-3.6-0.1-3.9-3.4-5.4
    c-0.7-0.3-1.3-0.6-1.8-1.2c-0.6-0.8-1.4-0.7-2.3-0.4c-0.8,0.4-1.4,0.9-1.3,1.9c0.3,2.4,0.4,4.8,0.3,7.3c0,0.3,0.1,0.6,0.2,0.8
    c3.1,4.5,4.3,9.8,5.8,14.9c1.2,3.9,3.4,6,7.4,6.3c0.6,0,1.3,0.2,1.9,0.3c1.8,0.3,2.9,1.5,3.4,3.2c0.7,2.1,0.3,2.6-1.8,2.6
    c-2.2,0-4.3,0-6.5,0c-0.9,0-1.6-0.2-2.3-0.8c-1-1-2.2-1.4-3.4-2c-1.3-0.6-2.6-1.3-3.4-2.6c-1.1-1.7-2.6-3.1-4-4.5
    c-2.8-2.9-5.8-5.7-8.4-8.7c-1.9-2.2-3.2-4.6-3.2-7.6c0-0.9-0.2-1.3-1.2-0.9c-0.3,0.2-0.7,0.3-1,0.3c-2.8,0-4.2,1.7-5.2,4.2
    c-0.9,2.1-2.1,4.1-3.2,6.2C88.5,40.9,88,42.4,88,44c0,2.4,0.6,3.2,2.8,4c1.4,0.5,2.7,1,3.4,2.4c0.8,1.6,0.6,2-1.1,2.1
    c-2.3,0-4.5,0-6.8,0c-0.9,0-1.5-0.3-1.9-1.1c-0.6-1-1.2-2-1.8-3c-1-1.7-1.4-3.4-0.7-5.4c0.6-1.7,0.3-3.6,0.1-5.3
    c-0.4-2.6,0-4.9,1.7-7c0.6-0.7,0.6-1-0.4-1.2c-4.1-0.8-8-2.3-11.8-4.1c0,0-0.1,0-0.1-0.1c-3.2-1.2-3.8-1-4.7,2.3
    c-0.8,2.8-1.6,5.6-2.2,8.5c-0.7,3.2,0.1,6.2,1.1,9.2c0.4,1.2,1.6,1.1,2.5,1.4c2,0.6,3.7,1.4,4.5,3.5c0.7,1.6,0.6,1.8-1.1,1.8
    c-1.7,0-3.4-0.1-5.2,0c-1.6,0.1-2.8-0.5-4.2-1.4c-4.8-3.2-6.2-8.1-6.6-13.4c-0.2-3.3-2-5.9-4.1-8.4c-0.4-0.5-0.8-0.7-1.4-0.3
    c-2.1,1.3-4.5,2.1-6.7,3c-4.8,1.8-9,4.6-12.2,8.8c-1.2,1.5-1.9,3.2-2.2,5.1c-0.3,1.8,0.2,2.6,2,3.1c1.9,0.6,2.7,1.5,2.9,3.4
    c0.1,0.8-0.2,1.2-1,1.2c-2.7,0-5.4,0-8.1,0c-0.6,0-1-0.4-1.3-0.8c-1.3-1.6-1.9-3.5-1.9-5.5c-0.1-3.5,0.3-6.9,0.9-10.3
    c0.4-2.1,1.4-3.8,3.4-4.8c5.9-2.8,9-8.1,11.8-13.6c0.6-1.1,0.1-1.3-0.9-1.2c-2.9,0.3-5.4,1.6-7.7,3.2c-3,2.1-5.7,4.6-8.3,7.1
    c-2.9,2.7-6.2,4.6-10.3,4.9C3.1,32.5-0.3,28.4,0,21.8c0.1-2.3,0.9-4.4,2.4-6.1c1.2-1.3,2.6-2,4.5-1.5c1.5,0.4,1.9,1.2,1.3,2.7
    c-0.3,0.6-0.7,1.1-1,1.7c-0.4,0.6-0.8,1.3-1,2c-1.1,3,0.4,5.1,3.5,5.4c3.3,0.3,6-1.1,8.5-3.1c3-2.4,5.7-5.2,8-8.3
    c3.7-4.8,8.5-7.3,14.4-8.1c2.3-0.3,4.3-1.3,6.5-1.9c4.1-1.2,8.3-1.9,12.7-1.8c2,0.1,3.9-0.3,5.8-1.1c4.9-2,10-2,15.1-1
    c4,0.8,8,1.8,11.9,2.8c2.2,0.5,4.7,0.3,7-0.2c4.4-1,8.9-1.9,13.4-2c3-0.1,5.9,0.4,8.6,1.7C123.6,3.9,123.6,3.9,123.1,5.8z"/>
  </g>
</symbol><symbol id="icon-cat-slim" viewBox="0 0 70 97">
  <g>
    <path d="M54.8,0c-0.1,0-0.3,0-0.4,0c-0.7,0.4-1.1,0.9-1.4,1.6c-0.6,1.1-1,2.3-1.3,3.4c-0.2,0.8-0.7,1.2-1.5,1.3
    c-2.3,0.4-4,1.7-5.2,3.7c-0.7,1.3-1.3,2.6-1.8,3.9c-1.4,3.7-2.5,7.5-3.8,11.2C38.7,27,38.6,27,36.7,27c-2.3,0-2.1-0.4-2.1,2.1
    c0,0.8,0.2,1.2,1.1,1.2c0.3,0,0.7-0.1,0.8,0.2c0.1,0.3-0.2,0.5-0.4,0.7c-1.2,1.3-2.7,2-4.3,2.4c-1.9,0.5-3.8,0.9-5.7,1.5
    c-4.7,1.6-9.1,3.8-12.6,7.6c-2.1,2.3-3.5,5-4.7,7.8C5,59.2,3.2,68.3,1.8,77.5c-0.6,4.3-1.1,8.6-1.5,13C0.2,92.7,0,94.8,0,97
    c11.1,0,22.2,0,33.3,0c0.1-0.5-0.1-0.9-0.2-1.3c-0.7-1.8-2.1-2.7-3.8-3.1c-0.7-0.2-0.8-0.4-0.4-0.9c0.7-0.9,1.2-2,1.6-3.1
    c1.6-4.8,2.3-9.8,3.1-14.8C34.2,70,35.1,66.4,37,63c1.5-2.5,3.3-4.6,5.6-6.4c0.8-0.6,0.9-0.6,1,0.4c0.1,0.7,0.1,1.4,0.2,2.2
    c0.3,4.7,0.3,9.5-0.2,14.2c-0.3,3.7-0.5,7.4-0.2,11c0.4,4.3,1.2,8.4,2.2,12.6c4.4,0,8.9,0,13.3,0c-0.3-2.2-2.1-4-4.2-4.4
    c-1.3-0.2-2.5-0.1-3.8,0.2c-0.6,0.1-0.8,0-0.9-0.6c-0.4-5.3-0.1-10.6,1-15.8c1.3-6,2.4-12.1,3.1-18.2c0.3-2.5,1-4.8,2.3-7
    c1.2-2.1,2.2-4.3,3.4-6.5c0.9-1.7,1.1-3.4,0.4-5.2c-0.3-0.7-0.5-1.4-0.9-2.1c-1-2-2-3.9-2.9-5.9c-0.5-1-0.4-1.1,0.7-1.1
    c1.6,0,1.6,0,1.7-1.6c0-0.2,0-0.4,0-0.7c0-0.7-0.3-1.1-1-1c-0.5,0-1,0-1.5,0c-0.7,0-0.9-0.3-0.7-1c0.6-2.3,2.8-4.1,5.1-4.4
    c2.2-0.3,4.4,0,6.6,0.4c0.6,0.1,1,0,1.3-0.6c0.4-1,0.8-2,1.3-3c0.2-0.4,0.2-0.8-0.1-1.1C66.6,13.2,63.1,9.4,58.4,7
    c-0.5-0.3-0.8-0.6-0.9-1.1c-0.3-1.4-0.7-2.8-1.3-4.2C55.9,1,55.6,0.4,54.8,0z"/>
  </g>
</symbol><symbol id="icon-close" viewBox="0 0 18 18">
  <polygon points="18,1.3 16.7,0 9,7.7 1.3,0 0,1.3 7.7,9 0,16.7 1.3,18 9,10.3 16.7,18 18,16.7 10.3,9 "/>
</symbol><symbol id="icon-fb-mobile" viewBox="0 0 10 19">
  <g>
    <path d="M7.1,19H2v-8.8H0V5.8h1.9c-0.1-2,0.2-3.4,1.1-4.4C3.8,0.5,5,0.1,6.5,0L10,0v4.2H7.2C7.1,4.4,7,5,7,5.8H10v4.4H7.1V19z
      M3.1,18h2.8V9.1h2.9V6.8H5.9l0-0.5c0-1.4,0-2.6,0.7-3.1l0.1-0.1h2.1V1H6.5c-1.2,0.1-2,0.4-2.6,1c-0.8,0.8-1,2.3-0.8,4.2l0.1,0.6
    H1.1v2.3h2V18z"/>
  </g>
</symbol><symbol id="icon-fb" viewBox="34.789 -4.709 13.518 27.75">
  <g>
    <path d="M44.32,23.041h-6.816V10.137h-2.715V3.763h2.629c-0.202-2.887,0.298-5,1.519-6.444c1.039-1.229,2.583-1.911,4.588-2.026
    l4.782-0.001v6.15h-3.755c-0.166,0.315-0.251,1.093-0.252,2.321h3.978v6.375H44.32V23.041z M39.004,21.541h3.816V8.637h3.957V5.263
    h-3.953l-0.016-0.734c-0.044-2.04,0.002-3.784,1.007-4.46l0.19-0.127h2.801v-3.15h-3.239c-1.557,0.091-2.711,0.581-3.485,1.496
    c-1.041,1.231-1.41,3.298-1.099,6.144l0.092,0.832h-2.786v3.375h2.715V21.541z"/>
  </g>
</symbol><symbol id="icon-gift" viewBox="0 0 55.5 60">
  <path d="M52.3,12.2h-7c0.5-0.7,0.8-1.4,1.1-2.2c0.6-2,0.4-4.1-0.6-5.9c-1-1.8-2.6-3.1-4.6-3.7c-2-0.6-4.1-0.4-5.9,0.6
  c-3.6,2-6.2,6.1-7.6,9c-1.4-2.9-4-7.1-7.6-9c-3.8-2-8.5-0.6-10.5,3.1c-1.4,2.7-1.2,5.8,0.5,8.1h-7c-1.7,0-3.1,1.4-3.1,3.1v9.4
  c0,1.7,1.4,3.1,3.1,3.1H4v26.1c0,3.3,2.7,6,6,6h35.5c3.3,0,6-2.7,6-6V27.8h0.8c1.7,0,3.1-1.4,3.1-3.1v-9.4
  C55.5,13.6,54.1,12.2,52.3,12.2z M36.5,3c1.3-0.7,2.7-0.8,4.1-0.4C41.9,3,43,3.9,43.7,5.2c0.7,1.3,0.8,2.7,0.4,4.1
  c-0.4,1.2-1.1,2.2-2.2,2.9H29.4C30.5,9.6,33,5,36.5,3z M11.7,5.2C13.2,2.6,16.4,1.6,19,3c3.5,1.9,6,6.6,7.1,9.1H13.5
  C11.2,10.7,10.4,7.6,11.7,5.2z M26.5,27.8v13.7H6.4V27.8H26.5z M6.4,53.9v-10h20.2v13.7H10C8,57.6,6.4,55.9,6.4,53.9z M45.5,57.6
  H28.9V43.9h20.2v10C49.1,55.9,47.5,57.6,45.5,57.6z M49.1,41.5H28.9V27.8h20.2V41.5z M53.1,24.7c0,0.4-0.3,0.7-0.7,0.7h-2
  c0,0,0,0,0,0s0,0,0,0H27.7c0,0,0,0,0,0s0,0,0,0H5.2c0,0,0,0,0,0s0,0,0,0h-2c-0.4,0-0.7-0.3-0.7-0.7v-9.4c0-0.4,0.3-0.7,0.7-0.7h49.2
  c0.4,0,0.7,0.3,0.7,0.7V24.7z"/>
</symbol><symbol id="icon-insta-mobile" viewBox="0 0 16 16">
  <style type="text/css">
    .st0 {
      fill: #231F20;
    }
  </style>
  <path class="st0" d="M11.8,1C13.6,1,15,2.4,15,4.2v7.7c0,1.7-1.4,3.1-3.1,3.1H4.2C2.4,15,1,13.6,1,11.8V4.2C1,2.4,2.4,1,4.2,1
  L11.8,1 M11.8,0H4.2C1.9,0,0,1.9,0,4.2v7.7C0,14.1,1.9,16,4.2,16h7.7c2.3,0,4.2-1.9,4.2-4.2V4.2C16,1.9,14.1,0,11.8,0L11.8,0z"/>
  <path class="st0" d="M8,4.9c1.7,0,3.1,1.4,3.1,3.1c0,1.7-1.4,3.1-3.1,3.1c-1.7,0-3.1-1.4-3.1-3.1C4.9,6.3,6.3,4.9,8,4.9 M8,3.9
  C5.7,3.9,3.9,5.7,3.9,8s1.8,4.1,4.1,4.1s4.1-1.8,4.1-4.1S10.3,3.9,8,3.9L8,3.9z"/>
  <circle class="st0" cx="12.3" cy="3.7" r="0.9"/>
</symbol><symbol id="icon-insta" viewBox="-3 -3 23 23">
  <path fill="#231F20" d="M14.002-1.501c2.48,0,4.498,2.02,4.498,4.501v11c0,2.481-2.018,4.5-4.498,4.5H3.01
  c-2.48,0-4.498-2.019-4.498-4.5V3c0-2.481,2.018-4.5,4.498-4.5h10.992 M14.002-3H3.01C-0.29-3-2.987-0.301-2.987,3v11.001
  C-2.987,17.299-0.29,20,3.01,20h10.995C17.301,20,20,17.299,20,13.999V3C20-0.301,17.301-3,14.002-3L14.002-3z"/>
  <path fill="#231F20" d="M8.506,4.078c2.44,0,4.429,1.985,4.429,4.428c0,2.44-1.989,4.43-4.429,4.43c-2.443,0-4.428-1.989-4.428-4.43
  C4.078,6.063,6.063,4.078,8.506,4.078 M8.506,2.578c-3.273,0-5.928,2.654-5.928,5.928s2.654,5.927,5.928,5.927
  c3.274,0,5.926-2.653,5.926-5.927S11.78,2.578,8.506,2.578L8.506,2.578z"/>
  <circle fill="#231F20" cx="14.646" cy="2.379" r="1.341"/>
</symbol><symbol id="icon-mail" viewBox="0 0 17 13">
  <path d="M15.6,11.6H1.4V5.8H0V13h17V5.8h-1.4V11.6z M0,0v2.3l8.5,7.1L17,2.3V0H0z M15.6,1.6L8.5,7.5L1.4,1.6V1.4h14.2L15.6,1.6z"/>
</symbol><symbol id="icon-mobile-menu" viewBox="0 0 24 18">
  <rect y="16" width="24" height="2"/>
  <rect y="8" width="24" height="2"/>
  <rect width="24" height="2"/>
</symbol><symbol id="icon-phone" viewBox="0 0 20 20">
  <path d="M17.9,9.4H9.4v1.2h8.5l-2.1,2.1l0.9,0.9l3.1-3.1c0.2-0.2,0.2-0.6,0-0.9l-3.1-3.1l-0.9,0.9L17.9,9.4z"/>
  <path d="M8.1,19.4v-6.2c0-0.3-0.3-0.6-0.6-0.6H4.4l0,0H3.1l0,0c0,0.7,0.6,1.2,1.2,1.2h2.5v5H3.1c-1,0.1-1.8-0.7-1.9-1.7
  c0-0.1,0-0.1,0-0.2V3.1c0-1,0.8-1.8,1.7-1.8c0.1,0,0.1,0,0.2,0h3.7v5H4.4c-0.7,0-1.2,0.6-1.2,1.2h4.4c0.3,0,0.6-0.3,0.6-0.6V0.6
  C8.1,0.3,7.8,0,7.5,0H3.1C1.5-0.1,0.1,1.2,0,2.9C0,3,0,3.1,0,3.1v13.7c-0.1,1.7,1.2,3.1,2.9,3.1c0.1,0,0.2,0,0.2,0h4.4
  C7.8,20,8.1,19.7,8.1,19.4z"/>
</symbol><symbol id="icon-plus-mobile" viewBox="0 0 30 30">
  <style type="text/css">
    .st0 {
      fill: #231F20;
    }
  </style>
  <polygon class="st0" points="30,14 16,14 16,0 14,0 14,14 0,14 0,16 14,16 14,30 16,30 16,16 30,16 "/>
</symbol><symbol id="icon-plus" viewBox="0 0 60 60">
  <style type="text/css">
    .st0 {
      fill: #231F20;
    }
  </style>
  <polygon class="st0" points="60,29.5 30.5,29.5 30.5,0 29.5,0 29.5,29.5 0,29.5 0,30.5 29.5,30.5 29.5,60 30.5,60 30.5,30.5
  60,30.5 "/>
</symbol><symbol id="icon-right-arrow-long" viewBox="0 0 24.2 11">
  <style type="text/css">
    .st0 {
      fill: #3F4242;
    }
  </style>
  <polygon class="st0" points="17.6,0 24.2,5.5 17.6,11 17.6,6.6 0,6.6 0,4.4 17.6,4.4 "/>
</symbol><symbol id="icon-right-arrow-verylong" viewBox="0 0 32 11">
  <style type="text/css">
    .st0 {
      fill: #3F4242;
    }
  </style>
  <polygon class="st0" points="25.4,0 32,5.5 25.4,11 25.4,6.6 0,6.6 0,4.4 25.4,4.4 "/>
</symbol><symbol id="icon-tick" viewBox="0 0 21.1 15.5">
  <polygon points="20.1,0 7.7,13.3 1,6.1 0,7.2 7.6,15.4 7.7,15.5 21,1.2 21.1,1.1 "/>
</symbol><symbol id="icon-vk-mobile" viewBox="0 0 22 12">
  <g>
    <path d="M17.6,12c-0.3,0-0.9-0.1-1.5-0.5c-0.5-0.3-0.9-0.7-1.3-1.2c-0.3-0.3-0.9-0.9-1.1-0.9c-0.2,0.1-0.4,0.7-0.3,1.2
    c0,0.1,0,0.6-0.3,0.9c-0.3,0.3-0.8,0.4-0.9,0.4l-1.4,0c-0.7,0-3.2-0.2-5.4-2.3C2.5,7.1,0.2,2.2,0.1,2C0,1.6-0.1,1.2,0.2,0.9
    c0.3-0.3,0.8-0.4,1-0.4l3,0l0.1,0c0.1,0,0.4,0.1,0.7,0.3c0.3,0.2,0.4,0.5,0.5,0.6c0,0,0.5,1.1,1.1,2c1,1.5,1.4,1.9,1.5,2
    C8.2,5,8.3,4,8.2,3.1c0-0.4-0.1-0.8-0.2-1C7.9,2,7.7,1.9,7.5,1.9L6.9,1.4C6.9,0.9,7.4,0.5,7.8,0.3C8.3,0.1,9.1,0,10.1,0l0.5,0
    c0.9,0,1.2,0.1,1.6,0.1c1.2,0.3,1.2,1.3,1.1,2.5c0,0.4,0,0.8,0,1.2c0,0.1,0,0.2,0,0.4c0,0.3,0,0.8,0.1,1c0.2-0.1,0.6-0.5,1.5-1.9
    c0.6-0.9,1-1.9,1.1-2.1l0,0c0.1-0.3,0.4-0.7,1.2-0.7l3.1,0c0,0,0.1,0,0.3,0c0.7,0,1.2,0.2,1.3,0.7c0.2,0.5,0.1,1.3-1.7,3.5
    c-0.3,0.3-0.5,0.6-0.7,0.9C19,6,18.6,6.6,18.6,6.7c0,0.1,0.5,0.5,0.9,0.9c1.1,0.9,1.9,1.7,2.2,2.3c0.4,0.6,0.3,1,0.2,1.3
    c-0.3,0.7-1.2,0.7-1.4,0.8l-2.8,0C17.7,12,17.6,12,17.6,12z M13.7,8.3c0.7,0,1.2,0.6,1.8,1.2c0.4,0.4,0.7,0.8,1.1,1
    c0.5,0.3,1,0.3,1,0.3l0.1,0l2.8,0c0.1,0,0.3-0.1,0.4-0.1c0,0,0-0.1-0.1-0.1c-0.3-0.5-1-1.3-2-2.1c-0.9-0.7-1.3-1.1-1.4-1.7
    c0-0.6,0.4-1.1,1.2-2.1c0.2-0.2,0.4-0.5,0.7-0.8c1.1-1.4,1.4-2,1.5-2.3c-0.1,0-0.5,0-0.5,0l-3.2,0c-0.1,0-0.2,0-0.2,0
    C16.9,2,16.4,3.1,15.8,4c-1.4,2.1-2,2.4-2.5,2.4c-0.1,0-0.3,0-0.4-0.1c-0.7-0.4-0.7-1.4-0.7-2.1c0-0.1,0-0.2,0-0.3
    c0-0.5,0-0.9,0-1.3c0.1-1.3,0-1.3-0.3-1.4c-0.3-0.1-0.5-0.1-1.4-0.1l-0.5,0c-0.5,0-1,0-1.4,0.1c0.1,0.1,0.1,0.1,0.2,0.2
    c0.4,0.5,0.4,1.5,0.4,1.7c0.1,1.3,0,2.9-0.7,3.3C8.4,6.4,8.3,6.5,8.1,6.5C7.5,6.5,6.8,5.8,5.6,4C5,2.9,4.5,1.8,4.5,1.8
    c0,0,0-0.1-0.1-0.1c-0.1,0-0.2-0.1-0.2-0.1l-2.9,0c0,0,0,0-0.1,0c0.4,0.9,2.5,5,4.8,7.2c2,1.9,4.3,2,4.7,2l1.4,0c0,0,0.2,0,0.2-0.1
    c0,0,0,0,0-0.1c0-0.2,0-2,1.2-2.3C13.5,8.3,13.6,8.3,13.7,8.3z"/>
  </g>
</symbol><symbol id="icon-vk" viewBox="3.007 11.628 30.004 15.761">
  <g>
    <path d="M26.945,27.388c-0.386,0-1.17-0.082-2.075-0.632c-0.642-0.385-1.223-0.968-1.784-1.532
    c-0.438-0.44-1.171-1.177-1.447-1.177c-0.268,0.075-0.481,0.921-0.476,1.569c0.004,0.113-0.001,0.774-0.468,1.213
    c-0.425,0.4-1.088,0.485-1.216,0.498l-1.926,0.007c-0.967,0-4.358-0.218-7.429-3.021c-3.674-3.358-6.835-9.798-6.968-10.07
    c-0.197-0.462-0.248-1.066,0.152-1.482c0.392-0.413,1.081-0.472,1.359-0.479l4.083-0.024l0.115,0.008
    c0.091,0.014,0.567,0.095,0.957,0.349c0.388,0.247,0.59,0.651,0.626,0.73c0.01,0.021,0.649,1.432,1.475,2.684
    c1.312,1.99,1.896,2.455,2.103,2.562c0.188-0.417,0.277-1.7,0.187-2.871c0.001-0.493-0.101-1.098-0.252-1.278
    c-0.112-0.134-0.426-0.253-0.778-0.294l-0.722-0.691c-0.096-0.658,0.635-1.226,1.149-1.446c0.737-0.316,1.792-0.382,3.147-0.382
    l0.71,0.005c1.235,0.012,1.622,0.081,2.149,0.191c1.702,0.361,1.64,1.729,1.567,3.312c-0.021,0.464-0.046,1.001-0.046,1.621
    c0,0.151-0.005,0.312-0.011,0.479c-0.012,0.38-0.032,1.038,0.093,1.304c0.219-0.145,0.852-0.665,2.072-2.483
    c0.783-1.165,1.4-2.539,1.517-2.803l0.001-0.001c0.182-0.43,0.608-0.941,1.613-0.946l4.274-0.024
    c0.012-0.003,0.172-0.016,0.377-0.016c0.98,0,1.597,0.287,1.832,0.854c0.269,0.65,0.169,1.657-2.354,4.605
    c-0.37,0.432-0.697,0.804-0.982,1.127c-0.598,0.678-1.216,1.379-1.237,1.595c0.053,0.169,0.662,0.665,1.252,1.145
    c1.53,1.247,2.528,2.264,3.033,3.073c0.522,0.759,0.429,1.33,0.258,1.677c-0.424,0.864-1.638,0.973-1.877,0.985l-3.79,0.047
    C27.153,27.382,27.063,27.388,26.945,27.388z M21.638,22.548c0.899,0,1.682,0.786,2.511,1.618c0.497,0.5,1.011,1.016,1.496,1.307
    c0.727,0.44,1.316,0.421,1.398,0.412l0.103-0.009l3.805-0.047c0.171-0.012,0.411-0.073,0.536-0.136
    c-0.018-0.039-0.048-0.094-0.098-0.167c-0.449-0.718-1.388-1.659-2.686-2.718c-1.184-0.963-1.801-1.465-1.865-2.244
    c-0.066-0.805,0.493-1.439,1.607-2.703c0.28-0.318,0.604-0.685,0.967-1.109c1.559-1.821,1.957-2.64,2.058-2.956
    c-0.17-0.029-0.648-0.021-0.678-0.018l-4.361,0.028c-0.191,0.001-0.249,0.035-0.249,0.036c-0.176,0.414-0.812,1.812-1.644,3.05
    c-1.895,2.82-2.785,3.2-3.407,3.201c-0.204,0-0.396-0.05-0.569-0.148c-1.003-0.569-0.963-1.834-0.934-2.757
    c0.005-0.149,0.01-0.295,0.01-0.431c0-0.646,0.025-1.207,0.048-1.689c0.076-1.68,0.016-1.692-0.379-1.776
    c-0.409-0.086-0.705-0.147-1.856-0.159l-0.693-0.005c-0.624,0-1.343,0.014-1.906,0.098c0.092,0.074,0.18,0.157,0.259,0.251
    c0.588,0.704,0.604,1.951,0.601,2.194c0.13,1.646,0.061,3.796-1.018,4.313c-0.191,0.092-0.392,0.137-0.597,0.137
    c-0.926,0-1.854-0.885-3.425-3.267c-0.895-1.354-1.56-2.824-1.587-2.887c-0.011-0.021-0.054-0.077-0.075-0.094
    c-0.083-0.054-0.233-0.097-0.32-0.116l-4.001,0.024c-0.021,0.001-0.045,0.002-0.07,0.005c0.591,1.189,3.426,6.592,6.519,9.419
    c2.74,2.502,5.826,2.629,6.417,2.629l1.851-0.003c0.046-0.01,0.218-0.062,0.269-0.1c-0.019,0.018-0.01-0.053-0.01-0.097
    c-0.003-0.265,0.012-2.595,1.578-3.034C21.369,22.566,21.502,22.548,21.638,22.548z"/>
  </g>
</symbol></svg>