<svg xmlns="http://www.w3.org/2000/svg" xmlns:xlink="http://www.w3.org/1999/xlink"><symbol id="htmlacademy" viewBox="0 0 26.943 34.09">
    <path d="M13.62.017L13.472 0 0 1.412v24.661l13.473 8.017 13.43-7.99.042-.025V1.412L13.62.017zm11.399 12.11L13.495 5.334l-.001-.104-.087.05-.088-.056v.109L1.925 12.118V3.147l11.548-1.212L25.02 3.147v8.98zm-11.614-5.34L24.923 13.5l-4.479 2.64-7.093-4.221-.014 1.415 5.904 3.513-.86.507-5.03-2.992-.014 1.415 3.827 2.275-.782.523-3.031-1.787-.014 1.413 1.853 1.091-1.8 1.081-11.356-6.751 11.371-6.835zm-11.48 8.34l11.411 6.791.016 1.044-7.942-4.728-.015 1.416 7.979 4.795.018 1.076-7.973-4.74-.013 1.414 8.021 4.822.046.025 8.143-4.872-.011-5.177 3.415-2.036v10.021L13.472 31.85 1.925 24.979v-9.852z"/>
</symbol><symbol id="icon-fb" viewBox="34.789 -4.709 13.518 27.75">
  <g>
    <path d="M44.32,23.041h-6.816V10.137h-2.715V3.763h2.629c-0.202-2.887,0.298-5,1.519-6.444c1.039-1.229,2.583-1.911,4.588-2.026
    l4.782-0.001v6.15h-3.755c-0.166,0.315-0.251,1.093-0.252,2.321h3.978v6.375H44.32V23.041z M39.004,21.541h3.816V8.637h3.957V5.263
    h-3.953l-0.016-0.734c-0.044-2.04,0.002-3.784,1.007-4.46l0.19-0.127h2.801v-3.15h-3.239c-1.557,0.091-2.711,0.581-3.485,1.496
    c-1.041,1.231-1.41,3.298-1.099,6.144l0.092,0.832h-2.786v3.375h2.715V21.541z"/>
  </g>
</symbol><symbol id="icon-insta" viewBox="-3 -3 23 23">
  <path d="M14.002-1.501c2.48,0,4.498,2.02,4.498,4.501v11c0,2.481-2.018,4.5-4.498,4.5H3.01
  c-2.48,0-4.498-2.019-4.498-4.5V3c0-2.481,2.018-4.5,4.498-4.5h10.992 M14.002-3H3.01C-0.29-3-2.987-0.301-2.987,3v11.001
  C-2.987,17.299-0.29,20,3.01,20h10.995C17.301,20,20,17.299,20,13.999V3C20-0.301,17.301-3,14.002-3L14.002-3z"/>
  <path d="M8.506,4.078c2.44,0,4.429,1.985,4.429,4.428c0,2.44-1.989,4.43-4.429,4.43c-2.443,0-4.428-1.989-4.428-4.43
  C4.078,6.063,6.063,4.078,8.506,4.078 M8.506,2.578c-3.273,0-5.928,2.654-5.928,5.928s2.654,5.927,5.928,5.927
  c3.274,0,5.926-2.653,5.926-5.927S11.78,2.578,8.506,2.578L8.506,2.578z"/>
  <circle cx="14.646" cy="2.379" r="1.341"/>
</symbol><symbol id="icon-mail" viewBox="0 0 17 13">
  <path d="M15.6,11.6H1.4V5.8H0V13h17V5.8h-1.4V11.6z M0,0v2.3l8.5,7.1L17,2.3V0H0z M15.6,1.6L8.5,7.5L1.4,1.6V1.4h14.2L15.6,1.6z"/>
</symbol><symbol id="icon-phone" viewBox="0 0 20 20">
  <path d="M17.9,9.4H9.4v1.2h8.5l-2.1,2.1l0.9,0.9l3.1-3.1c0.2-0.2,0.2-0.6,0-0.9l-3.1-3.1l-0.9,0.9L17.9,9.4z"/>
  <path d="M8.1,19.4v-6.2c0-0.3-0.3-0.6-0.6-0.6H4.4l0,0H3.1l0,0c0,0.7,0.6,1.2,1.2,1.2h2.5v5H3.1c-1,0.1-1.8-0.7-1.9-1.7
  c0-0.1,0-0.1,0-0.2V3.1c0-1,0.8-1.8,1.7-1.8c0.1,0,0.1,0,0.2,0h3.7v5H4.4c-0.7,0-1.2,0.6-1.2,1.2h4.4c0.3,0,0.6-0.3,0.6-0.6V0.6
  C8.1,0.3,7.8,0,7.5,0H3.1C1.5-0.1,0.1,1.2,0,2.9C0,3,0,3.1,0,3.1v13.7c-0.1,1.7,1.2,3.1,2.9,3.1c0.1,0,0.2,0,0.2,0h4.4
  C7.8,20,8.1,19.7,8.1,19.4z"/>
</symbol><symbol id="icon-vk" viewBox="3.007 11.628 30.004 15.761">
  <g>
    <path d="M26.945,27.388c-0.386,0-1.17-0.082-2.075-0.632c-0.642-0.385-1.223-0.968-1.784-1.532
    c-0.438-0.44-1.171-1.177-1.447-1.177c-0.268,0.075-0.481,0.921-0.476,1.569c0.004,0.113-0.001,0.774-0.468,1.213
    c-0.425,0.4-1.088,0.485-1.216,0.498l-1.926,0.007c-0.967,0-4.358-0.218-7.429-3.021c-3.674-3.358-6.835-9.798-6.968-10.07
    c-0.197-0.462-0.248-1.066,0.152-1.482c0.392-0.413,1.081-0.472,1.359-0.479l4.083-0.024l0.115,0.008
    c0.091,0.014,0.567,0.095,0.957,0.349c0.388,0.247,0.59,0.651,0.626,0.73c0.01,0.021,0.649,1.432,1.475,2.684
    c1.312,1.99,1.896,2.455,2.103,2.562c0.188-0.417,0.277-1.7,0.187-2.871c0.001-0.493-0.101-1.098-0.252-1.278
    c-0.112-0.134-0.426-0.253-0.778-0.294l-0.722-0.691c-0.096-0.658,0.635-1.226,1.149-1.446c0.737-0.316,1.792-0.382,3.147-0.382
    l0.71,0.005c1.235,0.012,1.622,0.081,2.149,0.191c1.702,0.361,1.64,1.729,1.567,3.312c-0.021,0.464-0.046,1.001-0.046,1.621
    c0,0.151-0.005,0.312-0.011,0.479c-0.012,0.38-0.032,1.038,0.093,1.304c0.219-0.145,0.852-0.665,2.072-2.483
    c0.783-1.165,1.4-2.539,1.517-2.803l0.001-0.001c0.182-0.43,0.608-0.941,1.613-0.946l4.274-0.024
    c0.012-0.003,0.172-0.016,0.377-0.016c0.98,0,1.597,0.287,1.832,0.854c0.269,0.65,0.169,1.657-2.354,4.605
    c-0.37,0.432-0.697,0.804-0.982,1.127c-0.598,0.678-1.216,1.379-1.237,1.595c0.053,0.169,0.662,0.665,1.252,1.145
    c1.53,1.247,2.528,2.264,3.033,3.073c0.522,0.759,0.429,1.33,0.258,1.677c-0.424,0.864-1.638,0.973-1.877,0.985l-3.79,0.047
    C27.153,27.382,27.063,27.388,26.945,27.388z M21.638,22.548c0.899,0,1.682,0.786,2.511,1.618c0.497,0.5,1.011,1.016,1.496,1.307
    c0.727,0.44,1.316,0.421,1.398,0.412l0.103-0.009l3.805-0.047c0.171-0.012,0.411-0.073,0.536-0.136
    c-0.018-0.039-0.048-0.094-0.098-0.167c-0.449-0.718-1.388-1.659-2.686-2.718c-1.184-0.963-1.801-1.465-1.865-2.244
    c-0.066-0.805,0.493-1.439,1.607-2.703c0.28-0.318,0.604-0.685,0.967-1.109c1.559-1.821,1.957-2.64,2.058-2.956
    c-0.17-0.029-0.648-0.021-0.678-0.018l-4.361,0.028c-0.191,0.001-0.249,0.035-0.249,0.036c-0.176,0.414-0.812,1.812-1.644,3.05
    c-1.895,2.82-2.785,3.2-3.407,3.201c-0.204,0-0.396-0.05-0.569-0.148c-1.003-0.569-0.963-1.834-0.934-2.757
    c0.005-0.149,0.01-0.295,0.01-0.431c0-0.646,0.025-1.207,0.048-1.689c0.076-1.68,0.016-1.692-0.379-1.776
    c-0.409-0.086-0.705-0.147-1.856-0.159l-0.693-0.005c-0.624,0-1.343,0.014-1.906,0.098c0.092,0.074,0.18,0.157,0.259,0.251
    c0.588,0.704,0.604,1.951,0.601,2.194c0.13,1.646,0.061,3.796-1.018,4.313c-0.191,0.092-0.392,0.137-0.597,0.137
    c-0.926,0-1.854-0.885-3.425-3.267c-0.895-1.354-1.56-2.824-1.587-2.887c-0.011-0.021-0.054-0.077-0.075-0.094
    c-0.083-0.054-0.233-0.097-0.32-0.116l-4.001,0.024c-0.021,0.001-0.045,0.002-0.07,0.005c0.591,1.189,3.426,6.592,6.519,9.419
    c2.74,2.502,5.826,2.629,6.417,2.629l1.851-0.003c0.046-0.01,0.218-0.062,0.269-0.1c-0.019,0.018-0.01-0.053-0.01-0.097
    c-0.003-0.265,0.012-2.595,1.578-3.034C21.369,22.566,21.502,22.548,21.638,22.548z"/>
  </g>
</symbol></svg>